<?xml version='1.0' encoding='utf-8'?>
<svg xmlns="http://www.w3.org/2000/svg" enable-background="new 0 0 348 507" version="1.1" viewBox="0 0 348 507">
<style type="text/css">
	.st0{fill:#001349;}
	.st1{fill:#FFFFFF;}
</style>
<rect class="st0" width="348" height="507"/>
<path class="st1" d="m176.4 19.1s-66.3 5.7-91.7 39-25.6 68.9-22.2 72.8-10.1 5.9-4.8 13.2 18.2 6.1 16.4 26.7-13.8 41.3 4.2 44.6 24.7-7.5 30-2.9 13.6 26.8 26.2 26.6 55 6.2 60.2-3.6 4.2-24.6 15.7-25.7c11.6-1.1 37.3 6.7 42.9-4.1 5.6-10.7 20-12.4 9.9-25.6 0 0 9.1-0.9 13.7-8.8s13.3-31.9 6.5-46.6c-6.9-14.7 4.6-35-10.7-49.1s-25.6-59.6-96.3-56.5z"/>
<path class="st1" d="m161.2 274.1s-7.8-2.7-7.7 1.7c0.2 4.3 2.1 26.3 1.8 52.2-0.2 15.5 4 16.2 4 16.2s3.3 0.3 3.2-16c-0.2-16.3 5.2-51.7 5.2-51.7s1.1-3.1-6.5-2.4z"/>
<path class="st1" d="m94.9 251.4s-11.5 18-5.8 18.7 34 1.7 41 4.7 22.8 14.3 28.8 15 26.2-8.2 27.7-8.2 26.2-5.8 39-3.7 21-3.1 21.5-7.3-1.7-17.7-7.8-19.2c-6.2-1.5-16.5 12.8-27.5 13.2-11 0.3-39.5 5.5-46.2 3.7s-32.3 2-42.5-5.3c-10.2-7.4-19.4-15.8-28.2-11.6z"/>
<path class="st1" d="m227.2 296.7c1.7-7.7-2.8-10.7-7.8-11.2s-26.2-3.3-41.5 4.2-12.2 9.6-11.5 11.3 2.2 3.8 4.7 3 18.5-8 23.2-8c14.5 0 16.8 3.3 22.8 5.7s9 0.4 10.1-5z"/>
<path class="st1" d="m226.2 321.5c3.1-7.3-0.8-11-5.6-12.5-4.8-1.4-25.1-8.2-41.5-3.8-16.5 4.4-13.8 7.1-13.4 8.9s1.4 4.2 4 3.8 19.7-4.3 24.3-3.4c14.2 2.8 15.9 6.5 21.3 9.9 5.5 3.5 8.8 2.1 10.9-2.9z"/>
<path class="st1" d="m218.5 339.1c3.4-6.4 0.2-10.1-4.1-11.8-4.2-1.7-22-9.3-37.3-6.5s-13 5.5-12.8 7.1 0.9 3.9 3.3 3.8 18.1-2.5 22.2-1.4c12.7 3.5 13.9 7.1 18.5 10.6s7.8 2.6 10.2-1.8z"/>
<path class="st1" d="m104.5 329.9c-2.1-6.4 1.2-9.3 5.1-10.2s20.5-5.2 33.4-0.4c12.9 4.9 10.6 7 10.3 8.5-0.4 1.5-1.3 3.4-3.4 3s-15.5-5-19.2-4.6c-11.5 1.4-13 4.4-17.6 6.9-4.5 2.6-7.1 1.2-8.6-3.2z"/>
<path class="st1" d="m105.3 310.5c-1.7-6.5 1.7-9.2 5.7-9.9s20.7-4 33.4 1.6c12.6 5.6 10.2 7.6 9.8 9.1-0.4 1.4-1.5 3.4-3.6 2.8-2-0.6-15.2-5.9-18.9-5.7-11.6 0.7-13.3 3.6-18 5.9-4.7 2.2-7.2 0.7-8.4-3.8z"/>
<path class="st1" d="m106.2 286.2c-0.1-6.7 4-8.5 8-8.1s21.1 1.3 31.9 9.9 8 9.9 7.2 11.2-2.3 2.9-4.2 1.8c-1.8-1.1-13.2-9.5-16.9-10.3-11.4-2.2-13.8 0.2-18.9 1.2s-7-1-7.1-5.7z"/>
<path class="st1" d="m99.6 272.1s-9.7 0.4-8.3 6c1.3 5.7 7.8 15.4 6.8 20.9s-10.5 22.2-9.5 24.6c1 2.3 6.7 7.3 11 5.3s8.3-2.7 7.2-8.7c-1.2-6-4.5-14.8-4.8-21.2s7.3-18.1 7.2-20.9c-0.3-2.9-9.6-6-9.6-6z"/>
<path class="st1" d="m92.2 329.4s-6.3 2.4-3.7 6.7-3.8 32.3-6.1 34.8 1.2 7.8 3.8 5.5c2.7-2.3 4.2-6 5.3-9.8 1.2-3.8 13.7-20 13.3-24.7s3.2-8.8-1-10.2c-4.1-1.4-7.5 2.6-7.6 4.1-0.2 1.5-3.5 18.8-4.5 20.3s2.5-12.5 2-16.7 3.9-8.9-1.5-10z"/>
<path class="st1" d="m235.1 277.1s-9.6 7.3-3.4 10.9c6.1 3.6 12.5 6.2 15.3 16s5 28.2 9.3 26.6 17.6-5.8 15.3-10.2-13.1-6.5-19.1-16-0.2-19-2.5-22.9c-2.5-3.8-2.2-12-14.9-4.4z"/>
<path class="st1" d="m260.5 334.5s-5.5 6 1.2 14.7 17.3 23.7 16.9 27.4 3.6 3.2 4.9 2.6 6.1-5.2 2.5-8.6-5.9-21.3-8.5-23.1-2.1-6.7-0.9-10.6c1.3-3.9-9.5-6.9-9.3-3 0.1 3.9 5.2 6.8 5.7 12s7.5 20.3 7.6 22.1-13.9-20.6-14.1-22.6 1.5-6.6-0.7-8.6c-2.1-2-2.2-4.1-5.3-2.3z"/>
<path class="st1" d="m109.1 342.1s9.4 39.1 16.7 36.8 15.6-11.7 21.3-9.2 32.8 4.8 37 2.5 7.8 9.7 14.5 10.5 10.7-15.1 12.2-22.5 4.3-13.1-1-18.1-18.2 4.2-29.2 6.6c-11.5 2.5-9.8-3.2-21.8-4.1-10.7-0.8-14 5.7-24.1 3-9-2.4-20.1-8.7-25.6-5.5z"/>
<path class="st1" d="m142.4 373.1s-18.7 13-15.7 18 9 18 7.7 22.7-4.5 16.2 1.2 14.8c5.7-1.3 19.8 0.3 14.7-9.7-5.2-10-12.2-4.8-11.4-13.2 0.9-8.3 11.4-17.8 9.9-23.2-1.6-5.3 1.4-10.4-6.4-9.4z"/>
<path class="st1" d="m186.4 376.1s18.7 13 15.7 18-9 18-7.7 22.7 4.5 16.2-1.2 14.8c-5.7-1.3-19.8 0.3-14.7-9.7 5.2-10 12.2-4.8 11.4-13.2-0.9-8.3-11.4-17.8-9.9-23.2 1.5-5.3-1.5-10.4 6.4-9.4z"/>
<path class="st1" d="m137.4 429.4s-5.8 2.7-2.3 16.5-5.8 14.2 0.6 16.2 11.7-3.8 9.6-7c-2.2-3.2-7.5-7.7-4.7-14.2s6.6-16.2-3.2-11.5z"/>
<path class="st1" d="m187.7 431.4s5.8 2.7 2.3 16.5 5.8 14.2-0.6 16.2-11.7-3.8-9.6-7c2.2-3.2 7.5-7.7 4.7-14.2s-6.6-16.2 3.2-11.5z"/>
<path class="st1" d="m133.7 464.5s-20.4 7.3-13.5 11.9 12.1 11.8 16-2.5c2.3-8.6 15.6-9.7-2.5-9.4z"/>
<path class="st1" d="m118.3 477.9c-2.8 1.7-2.4 3.5 0 2.3s3.6-3.5 1.4-2.6-2.2 0.9-2.2 0.9"/>
<path class="st1" d="m120 480.2c-3.1 2.6-2.7 5.3 0 3.5s4-5.4 1.6-4l-2.4 1.4"/>
<path class="st1" d="m123.5 482.3c-3.7 2.8-3.2 5.7 0 3.7s4.7-5.8 1.9-4.3l-2.9 1.5"/>
<path class="st1" d="m115.7 475.9c-2.4 1.5-2.1 3 0 2s3.1-3 1.2-2.3l-1.9 0.8"/>
<path class="st1" d="m128 484.4c-4.2 3.2-3.7 6.3 0 4.2 3.7-2.2 5.4-6.5 2.1-4.8l-3.3 1.6"/>
<path class="st1" d="m195.4 465.5s20.4 7.3 13.5 11.9c-6.9 4.7-12.1 11.8-16-2.5-2.3-8.6-15.7-9.7 2.5-9.4z"/>
<path class="st1" d="m210.7 478.9c2.8 1.7 2.4 3.5 0 2.3s-3.6-3.5-1.4-2.6l2.2 0.9"/>
<path class="st1" d="m209.1 481.2c3.1 2.6 2.7 5.3 0 3.5s-4-5.4-1.6-4l2.4 1.4"/>
<path class="st1" d="m205.6 483.3c3.7 2.8 3.2 5.7 0 3.7s-4.7-5.8-1.9-4.3l2.9 1.5"/>
<path class="st1" d="m213.4 476.9c2.4 1.5 2.1 3 0 2s-3.1-3-1.2-2.3l1.9 0.8"/>
<path class="st1" d="m201 485.4c4.2 3.2 3.7 6.3 0 4.2-3.7-2.2-5.4-6.5-2.1-4.8l3.3 1.6"/>
<path class="st1" d="m281.5 383.5s-9.6 0.7-6.1 4.8 4.9 10.5 8.8 8.3c3.8-2.2 16.7-3.4 14.9-6-1.7-2.6-4.7-14.2-6.9-12.4s-9.3 4.4-10.7 5.3z"/>
<path class="st1" d="m273.8 390.6s-3.2-0.5-8.7 9 10-2.2 10.1-5c0-2.9-0.7-4.1-1.4-4z"/>
<path class="st1" d="m284.2 398.2c-2.7 2.4-3.5 13.6 0.1 16.2s1.2-3.4 2-8.3 2.4-12-2.1-7.9z"/>
<path class="st1" d="m301.6 391.8s14.4 0.1 15.5 6.9 1.3 7.3-3.5 1.9-9.3-4.4-10.8-6.1c-1.5-1.8-1.5-1.5-1.2-2.7z"/>
<path class="st1" d="m295.7 394.4s3.2-2.8 3.8-0.8c0.7 2 16.1 11.2 15.5 15.3s1.6 11.4-5.9 0.5c-7.4-10.9-10.5-9.1-12-11.6-1.4-2.6-1.4-3.4-1.4-3.4z"/>
<path class="st1" d="m289.8 396.7s1.5-2.9 2.7-0.2 18.1 19.6 12.8 22.3c-3.5 1.8-4.7-6.7-9.3-11.6-3.6-4-6.2-10.5-6.2-10.5z"/>
<path class="st1" d="m87.7 379.1s9.6-0.1 6.4 4.3-4.1 10.9-8.1 9-16.9-2-15.4-4.8 3.5-14.5 5.9-12.9 9.7 3.7 11.2 4.4z"/>
<path class="st1" d="m94.8 386.4s3.2 0.8 4.7 11.6-8.4-5.9-7.4-8.5 2.1-3.5 2.7-3.1z"/>
<path class="st1" d="m86.2 394c2.9 2.1 4.6 13.3 1.3 16.2s-1.5-3.3-2.6-8.1c-1.2-4.8-3.5-11.8 1.3-8.1z"/>
<path class="st1" d="m68.4 389s-14.4 1.3-14.9 8.1-0.8 7.4 3.6 1.6 8.9-5.1 10.3-7 1.3-1.4 1-2.7z"/>
<path class="st1" d="m74.5 391.1s-3.4-2.5-3.9-0.5-15.1 12.5-14.3 16.5-0.6 11.5 5.9 0 9.8-9.9 11-12.5 1.3-3.5 1.3-3.5z"/>
<path class="st1" d="m80.5 393s-1.8-2.8-2.8 0-16.5 21-11 23.3c3.7 1.5 4.2-7.1 8.4-12.4 3.4-4.3 5.4-10.9 5.4-10.9z"/>
<path class="st1" d="m98.3 219.4s5.3-9.8 8.2-6.1 13.7 25.6 22.9 29c18.1 6.7 55.2 3.4 60.1 1.5 5.1-2 12.9-9.1 12.6-13.5s3.1-15.1 7.6-15.8 12-4.7 11.5-0.9-6.2 7.9-4.7 16.4 0.4 17.1-12.4 21.8c-12.8 4.6-40.2 3.8-50 3.2-14.2-0.9-25.4-3.9-32.9-5.9-6.2-1.6-14.8-17.4-19.2-22.9-4.4-5.7-3.7-6.8-3.7-6.8z"/>
<path d="m106.9 142.5s25.4 9.5 28.6 21 8.9 29.3-10 33.1-34.6-11.8-38.4-20.6-4.5-25.3 1.4-29c5.9-3.8 8.6-6.8 18.4-4.5z"/>
<path d="m191.4 134.1s9.4-2.4 15 2 24.3 12.3 26.7 22.5-5.7 30.9-17.4 30.9-29.2 5.1-31.8 1.7c-2.5-3.3-14.5-16.2-13.1-20.5 1.3-4.2 3.1-24.3 20.6-36.6z"/>
<path d="m158.3 188.2s-1.6 14.6 1.9 21.2 11.3 2 11.6-1.1-9.6-19.9-13.5-20.1z"/>
<path d="m153.2 187.6s-13.9 17.8-11.8 19.4c2.1 1.7 10 6.2 10.8 3.9 0.8-2.2 4.7-23.2 1-23.3z"/>
</svg>